<?xml version="1.0" encoding="utf-8"?>
<!-- Generator: Adobe Illustrator 22.1.0, SVG Export Plug-In . SVG Version: 6.00 Build 0)  -->
<svg version="1.1" id="Layer_1" xmlns="http://www.w3.org/2000/svg" xmlns:xlink="http://www.w3.org/1999/xlink" x="0px" y="0px"
	 viewBox="0 0 1000 1000" style="enable-background:new 0 0 1000 1000;" xml:space="preserve">
<g>
	<path d="M918.9,183.5C902.9,136.8,860.3,94.6,795,62c-79-39.5-183.4-61.2-294-61.2S285.9,22.5,207,62
		C141.7,94.6,99.1,136.8,83.1,183.5c-4.7,13.7-7.1,27.8-7.1,42.3V774c0,20.5,4.9,40.5,14.3,59.5c19.8,39.8,59.5,75.7,116.7,104.3
		c79,39.5,183.4,61.2,294,61.2s215.1-21.7,294-61.2c57.1-28.6,96.9-64.4,116.7-104.3c9.4-19,14.3-39,14.3-59.5V225.7
		C926,211.3,923.6,197.2,918.9,183.5z M876,774c0,3.2-0.2,6.3-0.6,9.5c-2.1,16.9-9.9,33.7-23.1,50c-0.6,0.7-1.2,1.5-1.8,2.2
		c-17.7,20.9-44.6,40.8-77.8,57.4C700.5,929.1,604,949,501,949s-199.5-19.9-271.7-55.9c-33.2-16.6-60.1-36.4-77.8-57.4
		c-0.6-0.7-1.2-1.5-1.8-2.2c-13.3-16.3-21-33.1-23.1-50c-0.4-3.2-0.6-6.3-0.6-9.5v-75c6.5,6.4,13.5,12.6,21.2,18.7
		c17.1,13.5,37,26,59.8,37.3c21.7,10.9,45.4,20.4,70.6,28.5c66.3,21.3,143.3,32.8,223.5,32.8s157.1-11.4,223.5-32.8
		c25.2-8.1,48.8-17.6,70.6-28.5c22.7-11.4,42.7-23.9,59.8-37.3c7.7-6,14.7-12.3,21.2-18.7V774z M876,591.3c0,19-7.2,38-21.2,56.3
		c-1.4,1.8-2.8,3.6-4.3,5.4c-8.7,10.2-19.5,20.2-32.3,29.7c-13.3,9.9-28.6,19.2-45.6,27.7C700.5,746.4,604,766.3,501,766.3
		s-199.5-19.9-271.7-55.9c-17-8.5-32.3-17.8-45.6-27.7c-12.7-9.5-23.6-19.4-32.3-29.7c-1.5-1.8-2.9-3.6-4.3-5.4
		c-14.1-18.4-21.2-37.3-21.2-56.3v-75c6.5,6.4,13.5,12.6,21.2,18.7c17.1,13.5,37,26,59.8,37.3c13.7,6.9,28.3,13.2,43.5,19
		c27.3,10.4,56.7,18.9,87.7,25.6c50.9,10.9,106,16.7,162.8,16.7s111.9-5.7,162.8-16.7c31-6.6,60.4-15.2,87.7-25.6
		c15.2-5.8,29.7-12.1,43.5-19c22.7-11.4,42.7-23.9,59.8-37.3c7.7-6,14.7-12.3,21.2-18.7V591.3z M876,408.5c0,19.1-7.2,38-21.2,56.3
		c-1.4,1.8-2.8,3.6-4.3,5.4c-8.7,10.2-19.5,20.2-32.3,29.7c-13.3,9.9-28.6,19.2-45.6,27.7c-32,16-68.8,28.8-108.8,38.1
		c-50.2,11.7-105.5,17.8-162.8,17.8s-112.6-6.2-162.8-17.8c-40-9.3-76.8-22.1-108.8-38.1c-17-8.5-32.3-17.8-45.6-27.7
		c-12.7-9.5-23.6-19.4-32.3-29.7c-1.5-1.8-2.9-3.6-4.3-5.4c-14.1-18.4-21.2-37.3-21.2-56.3v-75c6.5,6.4,13.5,12.6,21.2,18.7
		c17.1,13.5,37,26,59.8,37.3c13.7,6.9,28.3,13.2,43.5,19c27.3,10.4,56.7,18.9,87.7,25.6c50.9,10.9,106,16.7,162.8,16.7
		s111.9-5.8,162.8-16.7c31-6.6,60.4-15.2,87.7-25.6c15.2-5.8,29.7-12.1,43.5-19c22.7-11.4,42.7-23.9,59.8-37.3
		c7.7-6,14.7-12.3,21.2-18.7V408.5z M875.6,233.5c-1.7,16.4-8.6,32.7-20.8,48.6c-1.4,1.8-2.8,3.6-4.3,5.4
		c-8.7,10.2-19.5,20.2-32.3,29.7c-13.3,9.9-28.6,19.2-45.6,27.7c-32,16-68.8,28.8-108.8,38.1c-50.2,11.7-105.5,17.8-162.8,17.8
		s-112.6-6.2-162.8-17.8c-40-9.3-76.8-22.1-108.8-38.1c-17-8.5-32.3-17.8-45.6-27.7c-12.7-9.5-23.6-19.4-32.3-29.7
		c-1.5-1.8-2.9-3.6-4.3-5.4c-12.2-15.9-19.2-32.1-20.8-48.6c-0.3-2.6-0.4-5.2-0.4-7.8c0-14.2,4-28.4,11.8-42.3
		c3.7-6.5,8.3-13,13.7-19.5c17.7-20.9,44.6-40.8,77.8-57.3C301.5,70.6,398,50.7,501,50.7s199.5,19.9,271.7,55.9
		c33.2,16.6,60.1,36.4,77.8,57.3c5.4,6.4,10,12.9,13.7,19.5c7.9,13.9,11.8,28,11.8,42.3C876,228.3,875.9,230.9,875.6,233.5z" fill="#222222"/>
</g>
<circle cx="737.1" cy="483.5" r="25" fill="#222222"/>
<circle cx="737.1" cy="657.5" r="25" fill="#222222"/>
<circle cx="737.1" cy="840.5" r="25" fill="#222222"/>
</svg>
