<?xml version="1.0" encoding="utf-8"?>
<!-- Generator: Adobe Illustrator 22.1.0, SVG Export Plug-In . SVG Version: 6.00 Build 0)  -->
<svg version="1.1" id="Layer_1" xmlns="http://www.w3.org/2000/svg" xmlns:xlink="http://www.w3.org/1999/xlink" x="0px" y="0px"
	 viewBox="0 0 1000 1000" style="enable-background:new 0 0 1000 1000;" xml:space="preserve">
<g><path d="M975,949h-55V374c0-41.4-33.6-75-75-75s-75,33.6-75,75v575h-80V574c0-41.4-33.6-75-75-75s-75,33.6-75,75v375h-80V474
	c0-41.4-33.6-75-75-75s-75,33.6-75,75v475h-80V674c0-41.4-33.6-75-75-75s-75,33.6-75,75v275H25c-13.8,0-25,11.2-25,25s11.2,25,25,25
	h55h150h80h150h80h150h80h150h55c13.8,0,25-11.2,25-25S988.8,949,975,949z M130,949V674c0-13.8,11.2-25,25-25s25,11.2,25,25v275H130
	z M360,949V474c0-13.8,11.2-25,25-25c13.8,0,25,11.2,25,25v475H360z M590,949V574c0-13.8,11.2-25,25-25s25,11.2,25,25v375H590z
	 M820,949V374c0-13.8,11.2-25,25-25s25,11.2,25,25v575H820z" fill="#222222"/>
<path d="M155,451c41.4,0,75-33.6,75-75c0-9.7-1.9-19-5.2-27.5l123.3-107.2c10.9,6.2,23.5,9.7,36.9,9.7c21.7,0,41.2-9.2,54.9-23.9
	l100.3,43.6c-0.1,1.7-0.2,3.5-0.2,5.3c0,41.4,33.6,75,75,75s75-33.6,75-75c0-9.7-1.9-19-5.2-27.5l123.3-107.2
	c10.9,6.2,23.5,9.7,36.9,9.7c41.4,0,75-33.6,75-75c0-41.4-33.6-75-75-75s-75,33.6-75,75c0,9.7,1.9,19,5.2,27.5L651.9,210.7
	c-10.9-6.2-23.5-9.7-36.9-9.7c-21.7,0-41.2,9.2-54.9,23.9l-100.3-43.6c0.1-1.7,0.2-3.5,0.2-5.3c0-41.4-33.6-75-75-75s-75,33.6-75,75
	c0,9.7,1.9,19,5.2,27.5L191.9,310.7c-10.9-6.2-23.5-9.7-36.9-9.7c-41.4,0-75,33.6-75,75C80,417.4,113.6,451,155,451z M845,51
	c13.8,0,25,11.2,25,25c0,13.8-11.2,25-25,25s-25-11.2-25-25C820,62.2,831.2,51,845,51z M615,251c13.8,0,25,11.2,25,25
	c0,13.8-11.2,25-25,25s-25-11.2-25-25C590,262.2,601.2,251,615,251z M385,151c13.8,0,25,11.2,25,25c0,13.8-11.2,25-25,25
	s-25-11.2-25-25C360,162.2,371.2,151,385,151z M155,351c13.8,0,25,11.2,25,25c0,13.8-11.2,25-25,25s-25-11.2-25-25
	C130,362.2,141.2,351,155,351z" fill="#222222"/>
</g></svg>
