<?xml version="1.0" encoding="utf-8"?>
<!-- Generator: Adobe Illustrator 22.1.0, SVG Export Plug-In . SVG Version: 6.00 Build 0)  -->
<svg version="1.1" id="Layer_1" xmlns="http://www.w3.org/2000/svg" xmlns:xlink="http://www.w3.org/1999/xlink" x="0px" y="0px"
	 viewBox="0 0 1000 1000" style="enable-background:new 0 0 1000 1000;" xml:space="preserve">
<path d="M800,1000H200c-68.9,0-125-56.1-125-125V125C75,56.1,131.1,0,200,0h600c68.9,0,125,56.1,125,125v750
	C925,943.9,868.9,1000,800,1000z M200,50c-41.4,0-75,33.6-75,75v750c0,41.4,33.6,75,75,75h600c41.4,0,75-33.6,75-75V125
	c0-41.4-33.6-75-75-75H200z" fill="#222222"/>
<path d="M659.1,674.3H340.9c-8.8,0-15.9-11.2-15.9-25s7.1-25,15.9-25h318.2c8.8,0,15.9,11.2,15.9,25S667.9,674.3,659.1,674.3z" fill="#222222"/>
<path d="M750,824.3H250c-13.8,0-25-11.2-25-25s11.2-25,25-25h500c13.8,0,25,11.2,25,25S763.8,824.3,750,824.3z" fill="#222222"/>
<path d="M750,525H250c-13.8,0-25-11.2-25-25s11.2-25,25-25h500c13.8,0,25,11.2,25,25S763.8,525,750,525z" fill="#222222"/>
<path d="M659.1,375H340.9c-8.8,0-15.9-11.2-15.9-25s7.1-25,15.9-25h318.2c8.8,0,15.9,11.2,15.9,25S667.9,375,659.1,375z" fill="#222222"/>
<path d="M750,225.7H250c-13.8,0-25-11.2-25-25s11.2-25,25-25h500c13.8,0,25,11.2,25,25S763.8,225.7,750,225.7z" fill="#222222"/>
</svg>
