<?xml version="1.0" encoding="utf-8"?>
<!-- Generator: Adobe Illustrator 22.1.0, SVG Export Plug-In . SVG Version: 6.00 Build 0)  -->
<svg version="1.0" id="Layer_1" xmlns="http://www.w3.org/2000/svg" xmlns:xlink="http://www.w3.org/1999/xlink" x="0px" y="0px"
	 viewBox="0 0 1000 1000" style="enable-background:new 0 0 1000 1000;" xml:space="preserve">
<g><path d="M875,1000H125C56.1,1000,0,943.9,0,875V125C0,56.1,56.1,0,125,0h750c68.9,0,125,56.1,125,125v750
	C1000,943.9,943.9,1000,875,1000z M125,50c-41.4,0-75,33.6-75,75v750c0,41.4,33.6,75,75,75h750c41.4,0,75-33.6,75-75V125
	c0-41.4-33.6-75-75-75H125z" fill="#222222"/>
<path d="M300,237.9V200c0-13.8-11.2-25-25-25s-25,11.2-25,25v37.9c-43.1,11.1-75,50.3-75,96.8s31.9,85.7,75,96.8V800
	c0,13.8,11.2,25,25,25s25-11.2,25-25V431.5c43.1-11.1,75-50.3,75-96.8S343.1,249,300,237.9z M300,378c-7.4,4.3-15.9,6.7-25,6.7
	s-17.6-2.5-25-6.7c-14.9-8.7-25-24.8-25-43.3s10.1-34.6,25-43.3c7.4-4.3,15.9-6.7,25-6.7s17.6,2.5,25,6.7c14.9,8.7,25,24.8,25,43.3
	S314.9,369.3,300,378z" fill="#222222"/>
<path d="M750,337.9V200c0-13.8-11.2-25-25-25s-25,11.2-25,25v137.9c-43.1,11.1-75,50.3-75,96.8s31.9,85.7,75,96.8V800
	c0,13.8,11.2,25,25,25s25-11.2,25-25V531.5c43.1-11.1,75-50.3,75-96.8S793.1,349,750,337.9z M750,478c-7.4,4.3-15.9,6.7-25,6.7
	s-17.6-2.5-25-6.7c-14.9-8.7-25-24.8-25-43.3s10.1-34.6,25-43.3c7.4-4.3,15.9-6.7,25-6.7s17.6,2.5,25,6.7c14.9,8.7,25,24.8,25,43.3
	S764.9,469.3,750,478z" fill="#222222"/>
<path d="M525,535.3V200c0-13.8-11.2-25-25-25c-13.8,0-25,11.2-25,25v335.3c-43.1,11.1-75,50.3-75,96.8s31.9,85.7,75,96.8V800
	c0,13.8,11.2,25,25,25c13.8,0,25-11.2,25-25v-71.1c43.1-11.1,75-50.3,75-96.8S568.1,546.4,525,535.3z M525,675.4
	c-7.4,4.3-15.9,6.7-25,6.7s-17.6-2.5-25-6.7c-14.9-8.7-25-24.8-25-43.3s10.1-34.6,25-43.3c7.4-4.3,15.9-6.7,25-6.7s17.6,2.5,25,6.7
	c14.9,8.7,25,24.8,25,43.3S539.9,666.7,525,675.4z" fill="#222222"/>
</g></svg>
