<?xml version="1.0" encoding="utf-8"?>
<!-- Generator: Adobe Illustrator 22.1.0, SVG Export Plug-In . SVG Version: 6.00 Build 0)  -->
<svg version="1.1" id="Layer_1" xmlns="http://www.w3.org/2000/svg" xmlns:xlink="http://www.w3.org/1999/xlink" x="0px" y="0px"
	 viewBox="0 0 1000 1000" style="enable-background:new 0 0 1000 1000;" xml:space="preserve">
<path d="M700,100H200c-68.9,0-125,56.1-125,125v650c0,68.9,56.1,125,125,125h500c68.9,0,125-56.1,125-125V225
	C825,156.1,768.9,100,700,100z M775,875c0,41.4-33.6,75-75,75H200c-41.4,0-75-33.6-75-75V225c0-41.4,33.6-75,75-75h500
	c41.4,0,75,33.6,75,75V875z" fill="#222222"/>
<path d="M859.1,65.9C816.6,23.4,760.1,0,700,0H300c-13.8,0-25,11.2-25,25s11.2,25,25,25h400c96.5,0,175,78.5,175,175v550
	c0,13.8,11.2,25,25,25s25-11.2,25-25V225C925,164.9,901.6,108.4,859.1,65.9z" fill="#222222"/>
<path d="M650,750H250c-13.8,0-25,11.2-25,25s11.2,25,25,25h400c13.8,0,25-11.2,25-25S663.8,750,650,750z" fill="#222222"/>
<path d="M650,649.7H250c-13.8,0-25,11.2-25,25s11.2,25,25,25h400c13.8,0,25-11.2,25-25S663.8,649.7,650,649.7z" fill="#222222"/>
<path d="M650,549.3H250c-13.8,0-25,11.2-25,25s11.2,25,25,25h400c13.8,0,25-11.2,25-25S663.8,549.3,650,549.3z" fill="#222222"/>
<path d="M250,499h200c13.8,0,25-11.2,25-25s-11.2-25-25-25H250c-13.8,0-25,11.2-25,25S236.2,499,250,499z" fill="#222222"/>
</svg>
