<?xml version="1.0" encoding="utf-8"?>
<!-- Generator: Adobe Illustrator 22.1.0, SVG Export Plug-In . SVG Version: 6.00 Build 0)  -->
<svg version="1.1" id="Layer_1" xmlns="http://www.w3.org/2000/svg" xmlns:xlink="http://www.w3.org/1999/xlink" x="0px" y="0px"
	 viewBox="0 0 1000 1000" style="enable-background:new 0 0 1000 1000;" xml:space="preserve">
<g>
	<path d="M800,1000H200c-68.9,0-125-56.1-125-125V125C75,56.1,131.1,0,200,0h600c68.9,0,125,56.1,125,125v750
		C925,943.9,868.9,1000,800,1000z M200,50c-41.4,0-75,33.6-75,75v750c0,41.4,33.6,75,75,75h600c41.4,0,75-33.6,75-75V125
		c0-41.4-33.6-75-75-75H200z" fill="#222222"/>
</g>
<g>
	<path d="M750,900.1H250c-13.8,0-25-11.2-25-25s11.2-25,25-25h500c13.8,0,25,11.2,25,25S763.8,900.1,750,900.1z" fill="#222222"/>
</g>
<g>
	<path d="M750,800.8H250c-13.8,0-25-11.2-25-25s11.2-25,25-25h500c13.8,0,25,11.2,25,25S763.8,800.8,750,800.8z" fill="#222222"/>
</g>
<g>
	<g>
		<path d="M450.7,667.5c-62.4,0-121.1-24.3-165.2-68.4C241.3,554.9,217,496.2,217,433.8c0-62.4,24.3-121.1,68.4-165.2
			c44.1-44.1,102.8-68.4,165.2-68.4h25v208.7l208.7,0v25c0,62.4-24.3,121.1-68.4,165.2C571.8,643.2,513.1,667.5,450.7,667.5z
			 M425.7,251.8C336.2,264.1,267,341,267,433.8c0,101.3,82.4,183.7,183.7,183.7c92.8,0,169.8-69.2,182-158.7l-207,0V251.8z" fill="#222222"/>
	</g>
	<g>
		<path d="M783,359.3H524.3V100.7h25c62.4,0,121.1,24.3,165.2,68.4c44.1,44.1,68.4,102.8,68.4,165.2V359.3z M574.3,309.3h157
			c-11.1-81.3-75.7-145.9-157-157V309.3z" fill="#222222"/>
	</g>
</g>
</svg>
